<svg width="35" height="34" viewBox="0 0 35 34" fill="none" xmlns="http://www.w3.org/2000/svg">
<path d="M34.3141 12.2147L30.5156 2.3385C29.7958 0.471503 27.6987 -0.458459 25.8317 0.261338C25.8046 0.271811 25.7776 0.282567 25.7507 0.293677L6.76819 8.16248C4.9607 8.90393 4.07235 10.9499 4.76476 12.7768L5.2867 14.1699H4.0894C2.13628 14.1721 0.553463 15.7549 0.55127 17.7081V30.4453C0.553463 32.3984 2.13628 33.9813 4.0894 33.9835H28.1487C30.1018 33.9813 31.6846 32.3984 31.6868 30.4453V17.7081C31.6857 17.516 31.6686 17.3244 31.6359 17.1352L32.2931 16.8691C34.1167 16.1216 35.013 14.0575 34.3141 12.2147ZM4.0894 15.3022H28.1487C29.4193 15.3058 30.4674 16.2981 30.5405 17.5666H1.69762C1.77065 16.298 2.81879 15.3057 4.0894 15.3022ZM9.77928 11.892L13.5631 9.99954L14.3409 11.9452L10.5571 13.8371L9.77928 11.892ZM30.5546 30.4454C30.5531 31.7735 29.4768 32.8498 28.1487 32.8513H4.0894C2.76126 32.8498 1.68503 31.7735 1.68347 30.4454V23.2276H30.5546V30.4454ZM30.5546 22.0954H1.68347V18.6988H30.5546V22.0954ZM31.8685 15.823L31.277 16.0625C30.6659 14.9003 29.4618 14.1718 28.1487 14.17H12.4235L15.3135 12.7248C15.577 12.5932 15.6957 12.2816 15.5863 12.0081L14.3856 9.00774C14.2695 8.71747 13.9401 8.57623 13.6499 8.69228C13.6352 8.69815 13.6208 8.70459 13.6068 8.71166L8.80679 11.1131C8.54348 11.2448 8.4251 11.5564 8.5345 11.8297L9.47083 14.17H6.49533L5.82507 12.3823C5.34989 11.1271 5.96022 9.72173 7.20182 9.2121L26.1838 1.3433C27.4527 0.817108 28.908 1.41923 29.4343 2.68821C29.4425 2.70795 29.4504 2.72784 29.4581 2.74779L33.2566 12.624C33.7372 13.8903 33.1216 15.3089 31.8685 15.823Z" fill="#787878"/>
</svg>
