<svg width="38" height="38" viewBox="0 0 38 38" fill="none" xmlns="http://www.w3.org/2000/svg">
<path d="M19 38C13.9249 38 9.15355 36.0237 5.56492 32.4351C1.9763 28.8465 0 24.0751 0 19C0 13.9249 1.97637 9.15362 5.56492 5.56492C9.15347 1.97622 13.9249 0 19 0C24.0751 0 28.8465 1.9763 32.4351 5.56492C36.0237 9.15355 38 13.9249 38 19C38 24.0751 36.0236 28.8464 32.4351 32.4351C28.8465 36.0238 24.0751 38 19 38ZM19 2.375C9.83294 2.375 2.375 9.83294 2.375 19C2.375 28.1671 9.83294 35.625 19 35.625C28.1671 35.625 35.625 28.1671 35.625 19C35.625 9.83294 28.1671 2.375 19 2.375Z" fill="#9B9B9B"/>
<path d="M18 26C22.4183 26 26 22.4183 26 18C26 13.5817 22.4183 10 18 10C13.5817 10 10 13.5817 10 18C10 22.4183 13.5817 26 18 26Z" stroke="#9B9B9B" stroke-width="2" stroke-linecap="round" stroke-linejoin="round"/>
<path d="M27.9999 27.9999L23.6499 23.6499" stroke="#9B9B9B" stroke-width="2" stroke-linecap="round" stroke-linejoin="round"/>
</svg>
